<?xml version="1.0" encoding="iso-8859-1"?>
<!-- Uploaded to: SVG Repo, www.svgrepo.com, Generator: SVG Repo Mixer Tools -->
<!DOCTYPE svg PUBLIC "-//W3C//DTD SVG 1.1//EN" "http://www.w3.org/Graphics/SVG/1.1/DTD/svg11.dtd">
<svg fill="#000000" version="1.1" id="Capa_1" xmlns="http://www.w3.org/2000/svg" xmlns:xlink="http://www.w3.org/1999/xlink" 
	 width="800px" height="800px" viewBox="0 0 312.588 312.588"
	 xml:space="preserve">
<g>
	<g>
		<path d="M31.688,266.445h102.511l-34.025,11.045l8.399,10.164h26.512v19.884c10.604,11.491,21.209-0.223,21.209-0.223
			s10.605,11.708,21.21,0.223v-19.884h26.512l8.394-10.164l-34.02-11.045H280.9h2.651l-0.243-1.559
			c0.15-0.337,0.243-0.699,0.243-1.093v-37.117c0-1.46-1.17-2.65-2.651-2.65c-1.48,0-2.651,1.19-2.651,2.65v20.412
			c-8.471-8.207-35.159-34.206-41.093-41.621c-7.068-8.84-32.7-65.84-32.7-65.84l0.44-12.371l-26.952-19.443l-0.44-13.696
			l21.21,6.628V86.164L170.212,57.44c0,0,1.988-42.859-13.919-57.44c-15.907,14.581-13.918,57.44-13.918,57.44l-28.5,28.723v14.582
			l21.21-6.628l-0.44,13.696l-26.952,19.443l0.44,12.371c0,0-25.626,57-32.7,65.84c-5.934,7.415-32.625,33.414-41.093,41.621
			v-20.412c0-1.46-1.173-2.65-2.651-2.65c-1.478,0-2.651,1.19-2.651,2.65v37.117c0,0.394,0.096,0.756,0.243,1.093l-0.243,1.559
			H31.688z"/>
	</g>
</g>
</svg>