<svg xmlns="http://www.w3.org/2000/svg" version="1.0" width="701.000000pt" height="356.000000pt" viewBox="0 0 701.000000 356.000000" preserveAspectRatio="xMidYMid meet">

<g transform="translate(0.000000,356.000000) scale(0.100000,-0.100000)" fill="#ffffff" stroke="none">
<path d="M3488 3159 c-12 -6 -18 -22 -18 -44 l0 -35 -84 0 c-134 0 -215 -41 -260 -132 -62 -124 -16 -264 109 -331 37 -20 57 -22 258 -25 179 -3 226 -1 266 13 71 23 126 75 150 141 26 69 26 109 1 177 -39 105 -129 157 -270 157 l-80 0 0 29 c0 30 -22 61 -43 61 -7 0 -20 -5 -29 -11z m255 -183 c45 -19 74 -54 88 -107 11 -43 10 -50 -12 -95 -42 -84 -58 -89 -309 -89 -243 0 -259 4 -299 75 -44 79 -17 170 62 209 38 19 59 21 240 21 145 0 206 -4 230 -14z" fill="#ffffff"/>
<path d="M3301 2874 c-12 -15 -21 -32 -21 -39 0 -7 9 -24 21 -39 39 -50 109 -24 109 41 0 61 -71 85 -109 37z" fill="#ffffff"/>
<path d="M3630 2880 c-11 -11 -20 -31 -20 -45 0 -57 83 -88 114 -43 49 69 -35 147 -94 88z" fill="#ffffff"/>
<path d="M2770 2770 c-40 -40 -19 -142 40 -192 l39 -33 3 -121 c2 -84 7 -126 17 -137 11 -14 35 -17 151 -17 159 0 170 5 170 81 0 32 6 52 20 67 21 22 24 22 354 22 310 0 334 1 349 18 21 23 22 46 3 61 -19 16 -679 18 -716 2 -50 -21 -88 -68 -99 -124 l-7 -32 -72 -3 -72 -3 0 93 0 93 36 29 c43 34 64 80 64 140 0 37 -5 48 -24 61 -19 13 -29 14 -45 5 -17 -8 -21 -20 -21 -59 0 -54 -20 -81 -62 -81 -35 0 -50 21 -55 78 -5 42 -23 72 -45 72 -4 0 -17 -9 -28 -20z" fill="#ffffff"/>
<path d="M3998 2779 c-14 -8 -18 -23 -18 -72 0 -72 22 -117 70 -142 26 -13 29 -20 24 -43 -20 -83 -82 -141 -169 -157 -65 -11 -65 -12 -65 -174 0 -128 -3 -149 -20 -171 l-19 -25 -279 -3 c-270 -3 -279 -2 -305 18 -16 13 -27 31 -27 46 0 38 -18 64 -43 64 -33 0 -47 -19 -47 -62 0 -51 21 -90 67 -125 32 -24 47 -28 120 -32 l83 -3 0 -74 c0 -123 40 -183 128 -192 59 -5 105 15 132 61 16 25 20 50 20 120 l0 87 73 0 c96 0 152 27 184 89 20 39 23 58 23 168 0 111 2 123 18 123 28 0 102 44 143 85 37 37 79 124 79 165 0 11 12 26 29 35 47 24 71 73 71 143 0 52 -3 63 -21 72 -35 19 -69 -11 -69 -61 0 -58 -14 -79 -53 -79 -45 0 -57 16 -57 71 0 38 -5 51 -22 63 -26 19 -27 19 -50 5z m-438 -957 c0 -83 -9 -102 -46 -102 -37 0 -54 36 -54 112 l0 68 50 0 50 0 0 -78z" fill="#ffffff"/>
<path d="M3276 2344 c-12 -30 -7 -249 6 -262 9 -9 74 -12 229 -12 184 0 220 2 233 16 13 12 16 39 16 133 0 78 -4 121 -12 129 -9 9 -76 12 -239 12 -198 0 -228 -2 -233 -16z m394 -129 l0 -55 -155 0 -155 0 0 55 0 55 155 0 155 0 0 -55z" fill="#ffffff"/>
<path d="M2357 1382 c-22 -24 -21 -65 1 -85 40 -36 102 -9 102 45 0 51 -69 78 -103 40z" fill="#ffffff"/>
<path d="M2580 1095 l0 -295 55 0 55 0 0 44 c0 33 6 52 23 72 l24 27 57 -71 58 -72 70 0 69 0 -82 103 c-45 56 -86 107 -91 113 -5 7 20 43 65 96 39 46 78 92 86 101 12 16 8 17 -56 17 l-69 0 -75 -92 -74 -93 -3 173 -2 172 -55 0 -55 0 0 -295z" fill="#ffffff"/>
<path d="M1610 1092 l0 -292 60 0 59 0 3 136 3 137 87 -101 86 -101 84 99 c45 54 86 99 91 99 4 1 7 -60 7 -134 l0 -135 60 0 60 0 0 290 c0 160 -2 290 -4 290 -2 0 -70 -75 -151 -166 -81 -91 -151 -162 -155 -157 -4 4 -65 73 -135 153 -70 80 -134 152 -141 160 -12 12 -14 -30 -14 -278z" fill="#ffffff"/>
<path d="M3940 1085 l0 -285 60 0 60 0 0 115 0 115 140 0 140 0 0 55 0 55 -140 0 -141 0 3 63 3 62 158 3 158 3 -3 47 -3 47 -217 3 -218 2 0 -285z" fill="#ffffff"/>
<path d="M4470 1085 l0 -285 215 0 215 0 0 50 0 50 -155 0 -155 0 0 65 0 65 141 0 140 0 -3 53 c-2 32 -8 52 -15 53 -7 1 -69 2 -138 3 l-125 1 0 65 0 65 155 0 155 0 0 50 0 50 -215 0 -215 0 0 -285z" fill="#ffffff"/>
<path d="M4960 1320 l0 -50 85 0 85 0 0 -235 0 -235 60 0 60 0 0 235 0 235 85 0 85 0 0 50 0 50 -230 0 -230 0 0 -50z" fill="#ffffff"/>
<path d="M3277 1230 c-21 -4 -51 -17 -68 -29 l-29 -22 0 26 c0 24 -2 25 -60 25 l-60 0 0 -215 0 -215 59 0 59 0 4 131 3 131 33 28 c19 15 51 31 73 34 l39 6 0 50 c0 27 -3 51 -7 53 -5 2 -25 0 -46 -3z" fill="#ffffff"/>
<path d="M3551 1229 c-162 -31 -234 -226 -130 -352 48 -58 101 -82 185 -81 58 0 78 4 117 27 119 70 148 230 59 329 -61 68 -141 94 -231 77z m123 -115 c33 -25 46 -56 46 -109 0 -37 -6 -50 -35 -80 -29 -28 -43 -35 -76 -35 -54 0 -93 22 -113 64 -20 42 -20 67 -2 111 30 70 118 94 180 49z" fill="#ffffff"/>
<path d="M2340 1015 l0 -215 60 0 60 0 0 215 0 215 -60 0 -60 0 0 -215z" fill="#ffffff"/>
</g>
</svg>